<svg width="18" height="20" viewBox="0 0 18 20" fill="none" xmlns="http://www.w3.org/2000/svg">
  <path
    d="M16.8975 4.3525L13.1475 0.6025C13.0421 0.496981 12.8991 0.437631 12.75 0.4375H5.25C4.9019 0.4375 4.56806 0.575781 4.32192 0.821922C4.07578 1.06806 3.9375 1.4019 3.9375 1.75V3.4375H2.25C1.9019 3.4375 1.56806 3.57578 1.32192 3.82192C1.07578 4.06806 0.9375 4.4019 0.9375 4.75V18.25C0.9375 18.5981 1.07578 18.9319 1.32192 19.1781C1.56806 19.4242 1.9019 19.5625 2.25 19.5625H12.75C13.0981 19.5625 13.4319 19.4242 13.6781 19.1781C13.9242 18.9319 14.0625 18.5981 14.0625 18.25V16.5625H15.75C16.0981 16.5625 16.4319 16.4242 16.6781 16.1781C16.9242 15.9319 17.0625 15.5981 17.0625 15.25V4.75C17.0624 4.60087 17.003 4.45789 16.8975 4.3525ZM12.9375 18.25C12.9375 18.2997 12.9177 18.3474 12.8826 18.3826C12.8474 18.4177 12.7997 18.4375 12.75 18.4375H2.25C2.20027 18.4375 2.15258 18.4177 2.11742 18.3826C2.08225 18.3474 2.0625 18.2997 2.0625 18.25V4.75C2.0625 4.70027 2.08225 4.65258 2.11742 4.61742C2.15258 4.58225 2.20027 4.5625 2.25 4.5625H9.51656L12.9375 7.98344V18.25ZM15.9375 15.25C15.9375 15.2997 15.9177 15.3474 15.8826 15.3826C15.8474 15.4177 15.7997 15.4375 15.75 15.4375H14.0625V7.75C14.0624 7.60087 14.003 7.45789 13.8975 7.3525L10.1475 3.6025C10.0421 3.49698 9.89913 3.43763 9.75 3.4375H5.0625V1.75C5.0625 1.70027 5.08225 1.65258 5.11742 1.61742C5.15258 1.58225 5.20027 1.5625 5.25 1.5625H12.5166L15.9375 4.98344V15.25ZM10.3125 12.25C10.3125 12.3992 10.2532 12.5423 10.1477 12.6477C10.0423 12.7532 9.89918 12.8125 9.75 12.8125H5.25C5.10082 12.8125 4.95774 12.7532 4.85225 12.6477C4.74676 12.5423 4.6875 12.3992 4.6875 12.25C4.6875 12.1008 4.74676 11.9577 4.85225 11.8523C4.95774 11.7468 5.10082 11.6875 5.25 11.6875H9.75C9.89918 11.6875 10.0423 11.7468 10.1477 11.8523C10.2532 11.9577 10.3125 12.1008 10.3125 12.25ZM10.3125 15.25C10.3125 15.3992 10.2532 15.5423 10.1477 15.6477C10.0423 15.7532 9.89918 15.8125 9.75 15.8125H5.25C5.10082 15.8125 4.95774 15.7532 4.85225 15.6477C4.74676 15.5423 4.6875 15.3992 4.6875 15.25C4.6875 15.1008 4.74676 14.9577 4.85225 14.8523C4.95774 14.7468 5.10082 14.6875 5.25 14.6875H9.75C9.89918 14.6875 10.0423 14.7468 10.1477 14.8523C10.2532 14.9577 10.3125 15.1008 10.3125 15.25Z"
    fill="#0A0A0A" />
</svg>
  