<svg width="25" height="25" viewBox="0 0 25 25" fill="none" xmlns="http://www.w3.org/2000/svg">
<path d="M12.5645 2.7832C7.04445 2.7832 2.56445 7.2632 2.56445 12.7832C2.56445 18.3032 7.04445 22.7832 12.5645 22.7832C18.0845 22.7832 22.5645 18.3032 22.5645 12.7832C22.5645 7.2632 18.0845 2.7832 12.5645 2.7832ZM12.5645 20.7832C8.14445 20.7832 4.56445 17.2032 4.56445 12.7832C4.56445 8.3632 8.14445 4.7832 12.5645 4.7832C16.9845 4.7832 20.5645 8.3632 20.5645 12.7832C20.5645 17.2032 16.9845 20.7832 12.5645 20.7832Z" fill="#6D6E70"/>
<path d="M12.5645 2.7832C7.04445 2.7832 2.56445 7.2632 2.56445 12.7832C2.56445 18.3032 7.04445 22.7832 12.5645 22.7832C18.0845 22.7832 22.5645 18.3032 22.5645 12.7832C22.5645 7.2632 18.0845 2.7832 12.5645 2.7832ZM12.5645 20.7832C8.14445 20.7832 4.56445 17.2032 4.56445 12.7832C4.56445 8.3632 8.14445 4.7832 12.5645 4.7832C16.9845 4.7832 20.5645 8.3632 20.5645 12.7832C20.5645 17.2032 16.9845 20.7832 12.5645 20.7832Z" fill="black" fill-opacity="0.2"/>
</svg>
